<svg width="20" height="21" viewBox="0 0 20 21" fill="none" xmlns="http://www.w3.org/2000/svg">
<path opacity="0.4" d="M7.50002 2.16666C5.31669 2.16666 3.54169 3.94166 3.54169 6.125C3.54169 8.26666 5.21669 10 7.40002 10.075C7.46669 10.0667 7.53335 10.0667 7.58335 10.075C7.60002 10.075 7.60835 10.075 7.62502 10.075C7.63335 10.075 7.63335 10.075 7.64169 10.075C9.77502 10 11.45 8.26666 11.4584 6.125C11.4584 3.94166 9.68335 2.16666 7.50002 2.16666Z" fill="#5E6F76"/>
<path d="M11.7334 12.2917C9.40836 10.7417 5.6167 10.7417 3.27503 12.2917C2.2167 13 1.63336 13.9583 1.63336 14.9833C1.63336 16.0083 2.2167 16.9583 3.2667 17.6583C4.43336 18.4417 5.9667 18.8333 7.50003 18.8333C9.03336 18.8333 10.5667 18.4417 11.7334 17.6583C12.7834 16.95 13.3667 16 13.3667 14.9667C13.3584 13.9417 12.7834 12.9917 11.7334 12.2917Z" fill="#5E6F76"/>
<path opacity="0.4" d="M16.6584 6.61666C16.7917 8.23333 15.6417 9.65 14.05 9.84166C14.0417 9.84166 14.0417 9.84166 14.0334 9.84166H14.0084C13.9584 9.84166 13.9084 9.84166 13.8667 9.85833C13.0584 9.9 12.3167 9.64166 11.7584 9.16666C12.6167 8.4 13.1084 7.25 13.0084 6C12.95 5.325 12.7167 4.70833 12.3667 4.18333C12.6834 4.025 13.05 3.925 13.425 3.89166C15.0584 3.75 16.5167 4.96666 16.6584 6.61666Z" fill="#5E6F76"/>
<path d="M18.325 14.325C18.2583 15.1333 17.7417 15.8333 16.875 16.3083C16.0417 16.7667 14.9917 16.9833 13.95 16.9583C14.55 16.4167 14.9 15.7417 14.9667 15.025C15.05 13.9917 14.5583 13 13.575 12.2083C13.0167 11.7667 12.3667 11.4167 11.6583 11.1583C13.5 10.625 15.8167 10.9833 17.2417 12.1333C18.0083 12.75 18.4 13.525 18.325 14.325Z" fill="#5E6F76"/>
</svg>
