<svg width="20" height="21" viewBox="0 0 20 21" fill="none" xmlns="http://www.w3.org/2000/svg">
<path d="M16.1084 5.23335L10.8834 2.41668C10.3334 2.11668 9.66669 2.11668 9.11669 2.41668L3.89169 5.23335C3.50836 5.44168 3.27502 5.84168 3.27502 6.30001C3.27502 6.75001 3.50836 7.15835 3.89169 7.36668L9.11669 10.1833C9.39169 10.3333 9.70003 10.4083 10 10.4083C10.3 10.4083 10.6084 10.3333 10.8834 10.1833L16.1084 7.36668C16.4917 7.15835 16.725 6.75835 16.725 6.30001C16.725 5.84168 16.4917 5.44168 16.1084 5.23335Z" fill="#5E6F76"/>
<path opacity="0.4" d="M8.25835 11.1583L3.39169 8.72501C3.01669 8.54168 2.58335 8.55834 2.23335 8.77501C1.87502 9.00001 1.66669 9.37501 1.66669 9.79168V14.3833C1.66669 15.175 2.10835 15.8917 2.81669 16.25L7.67502 18.6833C7.84169 18.7667 8.02502 18.8083 8.20835 18.8083C8.42502 18.8083 8.64169 18.75 8.83335 18.6333C9.19169 18.4167 9.40002 18.0333 9.40002 17.6167V13.025C9.40835 12.225 8.96669 11.5083 8.25835 11.1583Z" fill="#5E6F76"/>
<path opacity="0.4" d="M17.7666 8.775C17.4083 8.55833 16.975 8.53333 16.6083 8.72499L11.75 11.1583C11.0416 11.5167 10.6 12.225 10.6 13.025V17.6167C10.6 18.0333 10.8083 18.4167 11.1666 18.6333C11.3583 18.75 11.575 18.8083 11.7916 18.8083C11.975 18.8083 12.1583 18.7667 12.325 18.6833L17.1833 16.25C17.8916 15.8917 18.3333 15.1833 18.3333 14.3833V9.79166C18.3333 9.37499 18.125 9 17.7666 8.775Z" fill="#5E6F76"/>
</svg>
